<svg xmlns="http://www.w3.org/2000/svg" width="135" height="40" fill="none" viewBox="0 0 135 40">
    <path fill="#fff" d="M129.152 0v.596h-1.611v4.652h-.657V.596h-1.611V0h3.879zM132.274 3.28L133.853.01h.649V5.26h-.657V1.411l-1.291 2.75h-.593l-1.266-2.726v3.824h-.658V.011h.642l1.595 3.268zM32.329 31.74v7.959H0V0h32.329v11.227H18.982v3.045h13.347v14.43c-1.21-.079-2.437-.214-3.688-.42-5.314-.875-8.938-2.656-8.978-2.672l-1.378 2.711c.16.08 4 1.98 9.747 2.934 1.443.254 2.878.405 4.297.485zm22.02-17.468v-3.037h13.41V0H35.392v28.758c4.497-.127 8.737-1.176 12.657-3.14l1.387 2.711c-4.297 2.155-9.058 3.316-14.044 3.459v7.91H67.76V14.273H54.349zM87.761 13.74v4.61H73.829V0h13.764v4.612h-7.696v2.584h6.926v3.76h-6.926v2.775h7.864v.008zM104.802 10.61v7.745h-4.289l-1.162-1.948h-.112c-.585 1.534-1.748 2.25-4.209 2.25-3.158 0-4.593-1.79-4.593-4.508 0-2.72 1.331-4.588 5.155-4.588 1.803 0 3.07.302 3.543.493h.08v-.771c0-1.13-.633-1.511-3.736-1.511-1.691 0-3.63.246-4.152.358l-.136-.136V3.987c1.138-.222 3.046-.437 4.93-.437 6.605 0 8.681 2.528 8.681 7.06zm-5.595 3.896v-1.98h-2.325c-.69 0-.938.326-.938.851v.684c0 .628.28.93 1.163.93h.28c.738.016 1.427-.207 1.82-.485zM118.606 13.628v4.667c-.473.111-2.189.358-3.656.358-4.705 0-6.116-2.091-6.116-5.852V8.57h-1.827V3.848h1.827V1.185L112.602 0h1.94v3.848h3.984v4.723h-3.984v3.76c0 .907.28 1.265 1.603 1.265.833 0 1.827-.024 2.357-.08l.104.112zM82.684 21.103c2.245 0 4.097.223 4.954.358v4.341l-.112.112c-1.05-.08-2.91-.191-4.489-.191-2.966 0-3.487.358-3.487 1.184v.191c0 .628.193.883 2.052 1.153l2.189.358c3.238.469 4.93 2.035 4.93 5.057 0 4.118-1.908 6.289-9.387 6.289-2.822 0-4.898-.247-5.676-.382v-4.476l.113-.08c1.579.191 3.463.326 5.37.326 2.91 0 3.431-.358 3.431-1.32v-.222c0-.716-.168-.986-2.573-1.344l-2.268-.358c-2.686-.381-4.321-1.836-4.321-4.969 0-3.8 2.132-6.027 9.274-6.027zM105.602 25.196v14.503h-4.401l-1.05-2.227h-.136c-.586 1.622-1.996 2.529-4.241 2.529-2.966 0-4.761-1.734-4.761-5.328v-9.477h5.731v8.571c0 .85.385 1.13 1.387 1.13.721 0 1.355-.192 1.771-.438v-9.255h5.7v-.008zM118.604 25.197v5.304l-.168.167c-.329-.024-.633-.024-.938-.024-1.443 0-2.605.135-3.463.326v8.738h-5.707V25.205h4.128l1.162 2.25h.112c.53-1.677 1.852-2.417 3.68-2.417.537-.008 1.002.08 1.194.16zM126.14 33.764v.605c0 1.153.553 1.59 3.294 1.59 2.213 0 3.936-.191 4.65-.326l.112.111v3.705c-.97.247-2.99.549-5.347.549-6.397 0-8.28-2.497-8.28-7.474 0-5.271 2.549-7.633 7.615-7.633 4.32 0 6.509 1.948 6.509 5.908v2.965h-8.553zm0-3.244v.303h3.35v-.986c0-.907-.28-1.265-1.467-1.265h-.192c-1.387 0-1.691.605-1.691 1.948z"/>
</svg>
