<svg xmlns="http://www.w3.org/2000/svg" width="23" height="24" fill="none" viewBox="0 0 23 24">
    <path fill="#fff" d="M18.42 15.438c-.656.003-1.303.15-1.893.43-.59.28-1.108.687-1.515 1.188l-6.404-3.912c.233-.737.233-1.524 0-2.26l6.404-3.913c.65.786 1.564 1.323 2.58 1.514 1.015.19 2.068.024 2.97-.47.902-.495 1.597-1.285 1.96-2.232.362-.947.37-1.989.023-2.941-.348-.952-1.03-1.754-1.924-2.262-.894-.508-1.943-.69-2.962-.515-1.02.176-1.941.698-2.604 1.475-.662.776-1.022 1.757-1.016 2.768.004.383.063.763.175 1.13L7.81 9.351C7.245 8.655 6.472 8.149 5.6 7.9c-.874-.247-1.804-.222-2.662.07-.859.293-1.603.84-2.129 1.564-.526.724-.809 1.59-.809 2.479 0 .888.283 1.754.81 2.478.525.725 1.27 1.27 2.128 1.563.858.293 1.788.317 2.661.07s1.646-.753 2.211-1.449l6.404 3.913c-.112.367-.17.747-.175 1.13 0 .847.257 1.674.738 2.378.482.704 1.166 1.253 1.966 1.577.8.324 1.681.409 2.531.244.85-.165 1.63-.573 2.243-1.172.613-.598 1.03-1.361 1.199-2.192.169-.83.082-1.69-.25-2.473-.331-.782-.892-1.451-1.613-1.921-.72-.47-1.567-.722-2.433-.722zm0-13.699c.52 0 1.028.15 1.46.433.432.282.769.684.968 1.153.199.47.25.986.15 1.484-.102.498-.352.956-.72 1.315-.367.36-.836.604-1.346.703-.51.1-1.038.048-1.518-.146-.48-.195-.89-.524-1.18-.946-.289-.423-.443-.92-.443-1.427 0-.681.277-1.335.77-1.816.493-.482 1.162-.753 1.859-.753zM4.402 14.582c-.52 0-1.028-.15-1.46-.433-.432-.282-.769-.683-.968-1.153-.199-.469-.25-.985-.15-1.484.102-.498.352-.956.72-1.315.367-.359.836-.604 1.346-.703.51-.099 1.038-.048 1.518.146.48.195.89.524 1.18.946.288.423.443.92.443 1.428 0 .68-.277 1.334-.77 1.816-.493.481-1.162.752-1.859.752zm14.018 7.706c-.52 0-1.028-.151-1.46-.433-.433-.282-.77-.684-.969-1.153-.198-.47-.25-.986-.15-1.484.102-.498.353-.956.72-1.315.368-.36.836-.604 1.346-.703.51-.1 1.038-.048 1.518.146.48.195.891.524 1.18.946.289.422.443.92.443 1.427 0 .681-.277 1.335-.77 1.816-.493.482-1.161.753-1.858.753z"/>
</svg>
