<svg xmlns="http://www.w3.org/2000/svg" width="18" height="18" fill="none" viewBox="0 0 18 18">
    <path fill="#FF2E6F" fill-rule="evenodd" d="M11.327 3.321c.07.041.125.104.154.18.03.075.033.158.009.236l-1.29 4.19h2.38c.07 0 .138.02.196.058.059.038.105.093.132.157.028.064.036.135.024.204-.012.069-.044.133-.092.184l-5.727 6.085c-.056.059-.13.097-.21.109-.08.011-.161-.004-.23-.045-.07-.04-.125-.104-.154-.18-.03-.075-.033-.158-.009-.235l1.29-4.19H5.42c-.07 0-.138-.02-.196-.059-.059-.038-.105-.093-.132-.157-.028-.064-.036-.135-.024-.204.012-.069.044-.133.092-.184l5.727-6.085c.056-.059.13-.097.21-.109.079-.012.16.004.23.045z" clip-rule="evenodd"/>
    <path fill="#FF2E6F" fill-rule="evenodd" d="M9 16.303c4.033 0 7.303-3.27 7.303-7.303 0-4.033-3.27-7.303-7.303-7.303-4.033 0-7.303 3.27-7.303 7.303 0 4.033 3.27 7.303 7.303 7.303zM9 18c4.97 0 9-4.03 9-9s-4.03-9-9-9-9 4.03-9 9 4.03 9 9 9z" clip-rule="evenodd"/>
</svg>
